<svg width="400" height="400" xmlns="http://www.w3.org/2000/svg">
	<g>
		<title>background</title>
		<rect fill="none" id="canvas_background" height="402" width="402" y="-1" x="-1"/>
		<g display="none" overflow="visible" y="0" x="0" height="100%" width="100%" id="canvasGrid">
			<rect fill="url(#gridpattern)" stroke-width="0" y="0" x="0" height="100%" width="100%"/>
		</g>
	</g>
	<g>
		<title>Layer 1</title>
		<line transform="rotate(0.27827897667884827 5.5000000000047065,299.9999999999999) " stroke-linecap="undefined" stroke-linejoin="undefined" id="svg_1" y2="400" x2="6" y1="200" x1="5" stroke-width="12" stroke="#000" fill="none"/>
		<line transform="rotate(0.27827897667884827 395.00000000000944,299.00000000000773) " stroke-linecap="undefined" stroke-linejoin="undefined" id="svg_3" y2="399" x2="395" y1="199" x1="395" stroke-width="12" stroke="#000" fill="none"/>
		<line stroke="#000" transform="rotate(90.22975158691406 184.49999999999997,395.00000000000006) " stroke-linecap="undefined" stroke-linejoin="undefined" id="svg_4" y2="617" x2="185" y1="173" x1="184" stroke-width="12" fill="none"/>
		<line transform="rotate(0.08740212768316269 130,122.49999999998703) " stroke-linecap="undefined" stroke-linejoin="undefined" id="svg_6" y2="200" x2="130" y1="45" x1="130" fill-opacity="null" stroke-opacity="null" stroke-width="12" stroke="#000" fill="none"/>
		<line transform="rotate(0.08740212768316269 270,122.4999999999946) " stroke-linecap="undefined" stroke-linejoin="undefined" id="svg_8" y2="200" x2="270" y1="45" x1="270" fill-opacity="null" stroke-opacity="null" stroke-width="12" stroke="#000" fill="none"/>
		<line transform="rotate(90 200,51.00000000000002) " stroke-linecap="undefined" stroke-linejoin="undefined" id="svg_9" y2="127" x2="200" y1="-25" x1="200" fill-opacity="null" stroke-opacity="null" stroke-width="12" stroke="#000" fill="none"/>
		<line stroke="#000" transform="rotate(90 84.99999999999999,194.75000000000003) " stroke-linecap="undefined" stroke-linejoin="undefined" id="svg_10" y2="245" x2="85" y1="144.500002" x1="85" fill-opacity="null" stroke-opacity="null" stroke-width="12" fill="none"/>
		<line stroke="#000" transform="rotate(90 315.00000000000006,195.00000000000003) " stroke-linecap="undefined" stroke-linejoin="undefined" id="svg_11" y2="245" x2="315" y1="145" x1="315" fill-opacity="null" stroke-opacity="null" stroke-width="12" fill="none"/>
		<line stroke="#000" transform="rotate(135 117.74074554443358,279.888916015625) " stroke-linecap="undefined" stroke-linejoin="undefined" id="svg_12" y2="402.823671" x2="117.759261" y1="156.954185" x1="117.722221" fill-opacity="null" stroke-opacity="null" stroke-width="12" fill="none"/>
		<line stroke="#000" transform="rotate(-135 286.8609008789062,275.99072265624994) " stroke-linecap="undefined" stroke-linejoin="undefined" id="svg_14" y2="393.049206" x2="287.110908" y1="158.932216" x1="286.610908" fill-opacity="null" stroke-opacity="null" stroke-width="12" fill="none"/>
		<text stroke="#000" xml:space="preserve" text-anchor="start" font-family="Helvetica, Arial, sans-serif" font-size="24" id="svg_15" y="197.13132" x="159.426194" fill-opacity="null" stroke-opacity="null" stroke-width="0" fill="#000000"/>
		<text stroke="#000" transform="matrix(1,0,0,0.8305197954177855,0.40983641147613525,35.22971482370485) " font-weight="bold" xml:space="preserve" text-anchor="start" font-family="'Trebuchet MS', Gadget, sans-serif" font-size="52" id="svg_17" y="196.311647" x="148.434252" fill-opacity="null" stroke-opacity="null" stroke-width="0" fill="#000000">FILE</text>
		<text stroke="#000" transform="matrix(1,0,0,0.8167809247970581,0,47.71068778535846) " font-weight="bold" xml:space="preserve" text-anchor="start" font-family="'Trebuchet MS', Gadget, sans-serif" font-size="52" id="svg_18" y="240.742384" x="101.293125" fill-opacity="null" stroke-opacity="null" stroke-width="0" fill="#000000">UPLOAD</text>
	</g>
</svg>