<svg width="400" height="400" xmlns="http://www.w3.org/2000/svg">
 <!-- Created with SVG Editor - http://github.com/mzalive/SVG Editor/ -->
 <g>
  <title>background</title>
  <rect fill="none" id="canvas_background" height="402" width="402" y="-1" x="-1"/>
  <g display="none" overflow="visible" y="0" x="0" height="100%" width="100%" id="canvasGrid">
   <rect fill="url(#gridpattern)" stroke-width="0" y="0" x="0" height="100%" width="100%"/>
  </g>
 </g>
 <g>
  <title>Layer 1</title>
  <path stroke="#000" id="svg_1" d="m392.494781,199.97845l-77.671781,26.98544l0,-53.942142l77.671781,26.956702zm-56.396275,-132.929876l-35.38561,72.737113l-39.049234,-38.164712l74.434844,-34.572401zm-136.098498,-55.048574l27.61696,75.869608l-55.248634,0l27.631674,-75.869608zm-136.113212,55.048574l74.46427,34.572401l-39.063947,38.164712l-35.400323,-72.737113zm-56.381562,132.929876l77.686494,-26.956702l0,53.942142l-77.686494,-26.98544zm56.381562,132.929876l35.400323,-72.708375l39.063947,38.150343l-74.46427,34.558032l0,0zm136.113212,55.091682l-27.631674,-75.883978l55.248634,0l-27.61696,75.883978zm136.098498,-55.091682l-74.449557,-34.543663l39.049234,-38.150343l35.400323,72.694005zm-232.338529,-132.929876l0,0c0,-51.901709 43.095406,-93.989225 96.254743,-93.989225c53.144624,0 96.254743,42.087516 96.254743,93.989225c0,51.916079 -43.110119,94.003594 -96.254743,94.003594c-53.174051,0 -96.254743,-42.087516 -96.254743,-94.003594l0,0z" stroke-width="1.5" fill="#000000"/>
 </g>
</svg>